# xmcd CD database file
#
# Track frame offsets:
#	150
#	19215
#	41535
#	63917
#	84914
#	99860
#	118169
#	141117
#	154317
#	179199
#
# Disc length: 2636 seconds
#
# Revision: 0
# Processed by: cddbd v1.5.1PL0 Copyright (c) Steve Scherf et al.
# Submitted via: CDex 1.51
#
DISCID=820a4a0a
DTITLE=既出技術 - AKIBABREW
DYEAR=1900
DGENRE=未分類 (日本)
TTITLE0=KO-DAIRA MODE - minto
TTITLE1=すごぃ。(ダンゴムシかょ edit) - ちょりん
TTITLE2=焼き鳥via - ichigo
TTITLE3=布団とカレーうどん TV版 - AI_Mac.rar feat. k10n0A
TTITLE4=コピペ朗読会 - ichigo
TTITLE5=popy - DJ bathrobe
TTITLE6=Ab bag Zi (LUV KOTONOMIYA MIX) - ちょりん
TTITLE7=GR 0752 (D29 edit) - AI_Mac.rar
TTITLE8=A-boy A-girl - ichigo
TTITLE9=Maid Technology - ちょりん
EXTD=
EXTT0=
EXTT1=
EXTT2=
EXTT3=
EXTT4=
EXTT5=
EXTT6=
EXTT7=
EXTT8=
EXTT9=
PLAYORDER=
